<svg width="40" height="40" viewBox="0 0 40 40" fill="none" xmlns="http://www.w3.org/2000/svg">
<path d="M28.0838 0H11.9162C5.34559 0 0 5.34559 0 11.9162V28.0838C0 34.6544 5.34559 40 11.9162 40H28.0838C34.6544 40 40 34.6544 40 28.0838V11.9162C39.9999 5.34559 34.6543 0 28.0838 0ZM35.976 28.0838C35.976 32.4425 32.4425 35.976 28.0838 35.976H11.9162C7.5575 35.976 4.024 32.4425 4.024 28.0838V11.9162C4.024 7.55743 7.5575 4.024 11.9162 4.024H28.0838C32.4425 4.024 35.976 7.55743 35.976 11.9162V28.0838Z" fill="url(#paint0_linear)"/>
<path d="M19.9997 9.65454C14.2952 9.65454 9.6543 14.2955 9.6543 19.9999C9.6543 25.7043 14.2952 30.3453 19.9997 30.3453C25.7042 30.3453 30.3451 25.7044 30.3451 19.9999C30.3451 14.2954 25.7042 9.65454 19.9997 9.65454ZM19.9997 26.3214C16.5085 26.3214 13.6783 23.4912 13.6783 20C13.6783 16.5087 16.5085 13.6785 19.9997 13.6785C23.491 13.6785 26.3211 16.5087 26.3211 20C26.3211 23.4911 23.4909 26.3214 19.9997 26.3214Z" fill="url(#paint1_linear)"/>
<path d="M30.3657 12.2111C31.7348 12.2111 32.8447 11.1013 32.8447 9.73215C32.8447 8.36305 31.7348 7.25317 30.3657 7.25317C28.9966 7.25317 27.8867 8.36305 27.8867 9.73215C27.8867 11.1013 28.9966 12.2111 30.3657 12.2111Z" fill="url(#paint2_linear)"/>
<defs>
<linearGradient id="paint0_linear" x1="20" y1="39.8836" x2="20" y2="0.310687" gradientUnits="userSpaceOnUse">
<stop stop-color="#E09B3D"/>
<stop offset="0.3" stop-color="#C74C4D"/>
<stop offset="0.6" stop-color="#C21975"/>
<stop offset="1" stop-color="#7024C4"/>
</linearGradient>
<linearGradient id="paint1_linear" x1="19.9997" y1="39.8835" x2="19.9997" y2="0.310654" gradientUnits="userSpaceOnUse">
<stop stop-color="#E09B3D"/>
<stop offset="0.3" stop-color="#C74C4D"/>
<stop offset="0.6" stop-color="#C21975"/>
<stop offset="1" stop-color="#7024C4"/>
</linearGradient>
<linearGradient id="paint2_linear" x1="30.3657" y1="39.8835" x2="30.3657" y2="0.31059" gradientUnits="userSpaceOnUse">
<stop stop-color="#E09B3D"/>
<stop offset="0.3" stop-color="#C74C4D"/>
<stop offset="0.6" stop-color="#C21975"/>
<stop offset="1" stop-color="#7024C4"/>
</linearGradient>
</defs>
</svg>
