<svg width="40" height="40" viewBox="0 0 40 40" fill="none" xmlns="http://www.w3.org/2000/svg">
<path d="M19.9999 21.6464C25.9774 21.6464 30.8231 16.8007 30.8231 10.8232C30.8231 4.84562 25.9774 0 19.9999 0C14.0224 0 9.17676 4.8457 9.17676 10.8232C9.18409 16.7976 14.0255 21.6391 19.9999 21.6464ZM19.9999 4.99533C23.2185 4.99533 25.8278 7.60453 25.8278 10.8232C25.8278 14.0419 23.2186 16.6511 19.9999 16.6511C16.7812 16.6511 14.172 14.0419 14.172 10.8232C14.172 7.60453 16.7813 4.99533 19.9999 4.99533Z" fill="#FF9800"/>
<path d="M30.602 26.775C31.7782 26.0002 32.4869 24.6867 32.4886 23.2782C32.505 22.1093 31.8454 21.0359 30.7952 20.5224C29.7162 19.9835 28.4246 20.1049 27.4649 20.8355C23.0173 24.078 16.9849 24.078 12.5373 20.8355C11.5761 20.1087 10.2868 19.9875 9.20701 20.5224C8.15729 21.0359 7.49736 22.1081 7.51196 23.2765C7.51445 24.6847 8.22293 25.9979 9.39855 26.7732C10.9068 27.7763 12.5494 28.5611 14.2773 29.1044C14.5704 29.1954 14.8729 29.2798 15.1849 29.3575L10.1529 34.278C8.83291 35.5587 8.80098 37.667 10.0817 38.9871C11.3625 40.3071 13.4708 40.339 14.7908 39.0583C14.8183 39.0316 14.8453 39.0045 14.8719 38.9769L20.0004 33.6684L25.139 38.9868C26.4186 40.3079 28.527 40.3414 29.848 39.0618C31.169 37.7821 31.2026 35.6738 29.9229 34.3527C29.8962 34.3251 29.8689 34.2979 29.8412 34.2712L24.8176 29.3558C25.1295 29.2759 25.4331 29.191 25.7283 29.1011C27.4545 28.5599 29.0954 27.7767 30.602 26.775Z" fill="#FF9800"/>
</svg>
