<svg width="40" height="40" viewBox="0 0 40 40" fill="none" xmlns="http://www.w3.org/2000/svg">
<g clip-path="url(#clip0)">
<path d="M34.4257 23.0752C35.7526 24.3706 37.153 25.5894 38.343 27.0155C38.8687 27.6492 39.3664 28.3031 39.7472 29.0386C40.2867 30.0841 39.798 31.2345 38.8606 31.297L33.0333 31.2943C31.5303 31.419 30.3313 30.814 29.3232 29.7863C28.5164 28.9645 27.7692 28.0899 26.9934 27.2404C26.6754 26.8932 26.3425 26.5665 25.9448 26.3082C25.1494 25.7919 24.4588 25.9499 24.0042 26.7796C23.5412 27.6235 23.4362 28.5579 23.3907 29.4984C23.3283 30.8706 22.9135 31.2313 21.5351 31.2941C18.5894 31.4331 15.7938 30.9874 13.1967 29.5014C10.907 28.1914 9.13155 26.342 7.58608 24.2483C4.57725 20.1715 2.27295 15.6916 0.202017 11.0863C-0.264155 10.0488 0.0767822 9.49181 1.22163 9.47204C3.12264 9.43509 5.02342 9.43774 6.9267 9.46938C7.69936 9.48071 8.21084 9.92384 8.5092 10.6538C9.53772 13.1827 10.7962 15.5888 12.3759 17.8191C12.7966 18.4128 13.2256 19.0066 13.8364 19.4245C14.5122 19.8873 15.0267 19.7339 15.3446 18.9811C15.5463 18.5038 15.6347 17.9896 15.6801 17.4784C15.8308 15.7196 15.8506 13.9638 15.5865 12.2111C15.4243 11.1173 14.8082 10.4092 13.7167 10.2022C13.1598 10.0967 13.2426 9.88938 13.5123 9.57149C13.9807 9.02321 14.4212 8.68188 15.2994 8.68188H21.8852C22.922 8.88649 23.1523 9.35228 23.2942 10.3955L23.2998 17.7109C23.2885 18.1147 23.5015 19.3132 24.229 19.5805C24.8112 19.7708 25.1949 19.305 25.5443 18.9359C27.1211 17.2624 28.2465 15.2845 29.2519 13.2366C29.698 12.336 30.0817 11.4009 30.4535 10.4664C30.729 9.77306 31.1612 9.43188 31.9423 9.44696L38.2807 9.45259C38.4687 9.45259 38.6588 9.45532 38.8408 9.48649C39.9089 9.66853 40.2016 10.128 39.8717 11.1709C39.3519 12.8073 38.3406 14.1709 37.3518 15.5409C36.2948 17.0034 35.1642 18.416 34.116 19.8873C33.1529 21.231 33.2294 21.9082 34.4257 23.0752Z" fill="#436EAB"/>
</g>
<defs>
<clipPath id="clip0">
<rect width="40" height="40" fill="white"/>
</clipPath>
</defs>
</svg>
